# xmcd
#
# Track frame offsets:
#	150
#	10940
#	20908
#	36359
#	56008
#	66935
#	78955
#	104226
#	114577
#	125349
#	139225
#	153912
#	168386
#	180840
#	192088
#	200035
#	209259
#	222217
#
# Disc length: 3115 seconds
#
# Revision: 0
# Processed by: cddbd v1.5.1PL0 Copyright (c) Steve Scherf et al.
# Submitted via: EasyCDDAExtractor 8.2.1.1
#
DISCID=070c2912
DTITLE=Giorgiana Ion - Ce-am auzit din batrani
DYEAR=2005
DGENRE=Folklore
TTITLE0=Fata lica ce ochi ai
TTITLE1=Dida nenii dada
TTITLE2=Fa Florino, fata mare
TTITLE3=Mi-a furat hotii caruta
TTITLE4=Dada Ioana, dada Ioana
TTITLE5=A-nflorit rugodnita
TTITLE6=Femeia indaratnica
TTITLE7=Ce-am auzit din batrani
TTITLE8=Cuculet di la padure
TTITLE9=Cine focu` ma-nvatat
TTITLE10=Da-m` neicuta ochii tai
TTITLE11=Cum bate vantu` din jos
TTITLE12=Di la Carna mai la vale
TTITLE13=Trandafir cu spini pe creaca
TTITLE14=Neicuta cu ochi siret
TTITLE15=Trandafir dupe razor
TTITLE16=Cand eram tanar fecior
TTITLE17=Cat e satu` meu de mare
EXTD=
EXTT0=
EXTT1=
EXTT2=
EXTT3=
EXTT4=
EXTT5=
EXTT6=
EXTT7=
EXTT8=
EXTT9=
EXTT10=
EXTT11=
EXTT12=
EXTT13=
EXTT14=
EXTT15=
EXTT16=
EXTT17=
PLAYORDER=
